<svg width="326" height="50" viewBox="0 0 326 50" fill="none" xmlns="http://www.w3.org/2000/svg">
<path d="M9.64963 4.83831V28.1535C9.64963 30.8203 10.2362 32.8585 11.4093 34.268C12.6202 35.6776 14.3609 36.3824 16.6314 36.3824C18.9019 36.3824 20.6237 35.6776 21.7968 34.268C23.0077 32.8585 23.6132 30.8203 23.6132 28.1535V4.83831H33.3196V28.1535C33.3196 31.9632 32.5817 35.1824 31.1059 37.811C29.63 40.4016 27.6055 42.3636 25.0323 43.697C22.4969 44.9923 19.6209 45.6399 16.4044 45.6399C13.1878 45.6399 10.3497 44.9923 7.88999 43.697C5.43028 42.4017 3.50036 40.4397 2.10021 37.811C0.700071 35.1824 0 31.9632 0 28.1535V4.83831H9.64963Z" fill="white"/>
<path d="M65.8596 24.4391C68.2815 25.0105 70.1925 26.1915 71.5926 27.9821C73.0306 29.7726 73.7496 31.8489 73.7496 34.2109C73.7496 37.6777 72.5954 40.3826 70.2871 42.3255C68.0166 44.2684 64.7433 45.2399 60.4672 45.2399H41.7923V4.83831H60.0131C64.1 4.83831 67.2597 5.73358 69.4924 7.52413C71.7251 9.31467 72.8414 11.8672 72.8414 15.1816C72.8414 17.6198 72.1981 19.6579 70.9115 21.2961C69.6248 22.8962 67.9409 23.9438 65.8596 24.4391ZM51.4987 21.3532H57.8561C61.224 21.3532 62.9079 19.9056 62.9079 17.0102C62.9079 14.1149 61.1862 12.6672 57.7426 12.6672H51.4987V21.3532ZM58.4237 37.2967C62.0187 37.2967 63.8162 35.811 63.8162 32.8394C63.8162 31.3917 63.3431 30.2679 62.3971 29.4679C61.451 28.6297 60.1077 28.2107 58.3669 28.2107H51.4987V37.2967H58.4237Z" fill="white"/>
<path d="M99.1974 4.43829C104.306 4.43829 108.525 5.79073 111.855 8.4956C115.223 11.2005 117.399 14.8577 118.383 19.4675H108.109C107.352 17.6007 106.179 16.134 104.59 15.0673C103.038 14.0006 101.184 13.4672 99.0271 13.4672C96.189 13.4672 93.8995 14.5149 92.1588 16.6102C90.4181 18.7055 89.5478 21.5056 89.5478 25.0105C89.5478 28.5154 90.4181 31.3155 92.1588 33.4109C93.8995 35.4681 96.189 36.4967 99.0271 36.4967C101.184 36.4967 103.038 35.9633 104.59 34.8966C106.179 33.8299 107.352 32.3823 108.109 30.5536H118.383C117.399 35.1252 115.223 38.7825 111.855 41.5255C108.525 44.2303 104.306 45.5828 99.1974 45.5828C95.2997 45.5828 91.875 44.7256 88.9234 43.0112C85.9717 41.2588 83.6823 38.8206 82.0551 35.6967C80.4657 32.5727 79.6711 29.0107 79.6711 25.0105C79.6711 21.0104 80.4657 17.4483 82.0551 14.3244C83.6823 11.2005 85.9717 8.78132 88.9234 7.06697C91.875 5.31452 95.2997 4.43829 99.1974 4.43829Z" fill="white"/>
<path d="M167.995 33.868C167.995 36.0014 167.447 37.9634 166.349 39.754C165.29 41.5445 163.7 42.9731 161.581 44.0399C159.5 45.1066 156.964 45.6399 153.975 45.6399C149.472 45.6399 145.763 44.5351 142.85 42.3255C139.936 40.1159 138.346 37.0301 138.081 33.068H148.412C148.564 34.5919 149.093 35.7919 150.002 36.6681C150.948 37.5444 152.14 37.9825 153.578 37.9825C154.826 37.9825 155.81 37.6396 156.529 36.9539C157.248 36.2681 157.608 35.3538 157.608 34.2109C157.608 33.1823 157.267 32.3251 156.586 31.6394C155.943 30.9536 155.129 30.4012 154.145 29.9822C153.161 29.525 151.799 28.9916 150.058 28.3821C147.523 27.5059 145.442 26.6677 143.814 25.8677C142.225 25.0296 140.844 23.8105 139.671 22.2104C138.536 20.5723 137.968 18.4579 137.968 15.8673C137.968 13.4672 138.573 11.3909 139.784 9.6385C140.995 7.88605 142.66 6.55266 144.779 5.63834C146.936 4.68592 149.396 4.20971 152.159 4.20971C156.624 4.20971 160.162 5.27642 162.773 7.40984C165.422 9.54325 166.917 12.4767 167.257 16.2102H156.756C156.567 14.8768 156.075 13.8291 155.281 13.0672C154.524 12.2672 153.483 11.8672 152.159 11.8672C151.023 11.8672 150.096 12.1719 149.377 12.7815C148.696 13.391 148.355 14.2863 148.355 15.4673C148.355 16.4197 148.658 17.2388 149.264 17.9245C149.907 18.5722 150.702 19.1055 151.648 19.5246C152.594 19.9437 153.956 20.477 155.735 21.1247C158.308 22.0009 160.408 22.8771 162.035 23.7533C163.662 24.5915 165.063 25.8296 166.236 27.4678C167.409 29.1059 167.995 31.2394 167.995 33.868Z" fill="white"/>
<path d="M231.831 37.7539H244.772V45.2399H222.124V4.83831H231.831V37.7539Z" fill="white"/>
<path d="M276.079 37.8682H261.037L258.54 45.2399H248.322L263.024 5.12403H274.206L288.907 45.2399H278.577L276.079 37.8682ZM273.582 30.4393L268.586 15.5816L263.535 30.4393H273.582Z" fill="white"/>
<path d="M315.272 45.2399L306.587 29.9822H304.373V45.2399H294.667V4.83831H311.242C314.42 4.83831 317.107 5.39071 319.302 6.49551C321.497 7.60032 323.143 9.12419 324.24 11.0671C325.338 12.972 325.886 15.1625 325.886 17.6388C325.886 20.5723 325.073 23.0676 323.446 25.1248C321.856 27.182 319.529 28.5916 316.464 29.3536L326 45.2399H315.272ZM304.373 23.2962H310.39C312.32 23.2962 313.739 22.8771 314.648 22.039C315.556 21.1628 316.01 19.8865 316.01 18.2103C316.01 16.6102 315.537 15.353 314.591 14.4387C313.683 13.5244 312.282 13.0672 310.39 13.0672H304.373V23.2962Z" fill="white"/>
<path d="M197.18 9.23031C188.96 7.66781 180.088 14.0046 178.421 22.0486C176.754 30.0926 182.982 38.6574 191.202 40.2777C199.422 41.8981 210.372 35.8024 210.928 27.3726C212.537 19.2708 205.343 10.7928 197.18 9.23031ZM196.49 11.7476C196.72 11.8055 196.95 11.8055 197.18 11.8634C201.319 12.6736 204.653 15.2777 206.435 18.6921L199.882 20.949C199.882 20.949 196.548 21.9907 196.49 17.6504C196.433 14.8148 196.433 12.7893 196.433 11.8055C196.49 11.8055 196.49 11.8055 196.49 11.7476ZM195.053 22.4537C196.433 22.743 197.352 24.074 197.065 25.4051C196.778 26.7939 195.455 27.662 194.076 27.3726C192.696 27.0833 191.777 25.7523 192.064 24.4212C192.351 23.0324 193.673 22.1643 195.053 22.4537ZM192.351 11.8055V17.0138C192.351 17.7083 192.351 18.3449 192.351 19.0393C192.409 20.081 191.949 21.875 188.213 20.7754C183.097 19.2708 182.924 19.2129 182.924 19.2129L182.407 19.0393C184.361 15.162 188.04 12.5578 192.351 11.8055ZM185.223 34.4328C185.223 34.4328 185.223 34.4328 185.166 34.375C182.062 31.4236 180.51 27.2569 181.257 22.8009C181.372 22.8588 181.43 22.8588 181.545 22.9166L187.063 24.7685C187.063 24.7685 190.914 25.7523 188.787 28.8773C187.235 31.1921 185.856 33.3333 185.281 34.375C185.281 34.375 185.223 34.375 185.223 34.4328ZM191.892 37.8472C190.684 37.6157 189.592 37.2106 188.557 36.7477C188.557 36.6898 188.557 36.6898 188.615 36.6898L192.006 32.0601C192.006 32.0601 194.191 28.4143 196.49 31.4814C198.272 33.912 199.882 35.7638 200.744 36.6319C198.1 37.9051 194.996 38.4259 191.892 37.8472ZM207.699 27.4305C207.124 30.1504 205.745 32.5231 203.848 34.3171L200.054 28.9351C199.709 28.4722 199.479 27.8935 199.537 27.3148C199.537 26.3888 200.054 25.1157 202.238 24.1319C204.825 22.9745 206.665 22.3379 207.642 22.0486C207.642 22.0486 207.642 22.0486 207.699 22.0486C208.044 23.7268 208.102 25.5787 207.699 27.4305Z" fill="#E5B13A"/>
<path d="M214.827 32.2338C215.805 32.6389 216.552 32.6389 216.552 32.6389C215.69 32.4074 214.942 31.3079 214.942 31.3079C214.023 30.0926 213.333 29.456 212.758 29.1088C213.16 28.8194 213.85 28.2986 215.517 27.7199C216.494 27.3727 219.541 28.0671 219.541 28.0671C218.219 26.6204 217.529 24.3056 215.287 24.1898C213.793 24.0741 212.93 23.6111 212.528 23.1482C212.471 22.5116 212.356 21.8171 212.241 21.1806C213.275 20.7755 214.367 21.1227 214.367 21.1227C218.046 21.5278 219.541 19.2708 219.541 19.2708C219.541 19.2708 218.909 20.3125 215.69 19.213C215.575 19.1551 215.517 19.1551 215.402 19.0972C216.494 18.9236 217.242 18.4028 217.242 18.4028C216.379 18.6921 215.172 18.287 215.172 18.287C213.505 17.7662 212.528 17.7083 211.896 17.7662C212.068 17.3032 212.356 16.4931 213.218 15.3356C213.793 14.4676 216.724 13.3102 216.724 13.3102C214.77 12.9051 212.873 11.4005 210.918 12.6157C209.884 13.2523 209.079 13.4259 208.504 13.4259C207.987 12.8472 207.469 12.2685 206.895 11.8056C207.584 10.7639 208.907 10.4745 208.907 10.4745C212.298 9.08565 212.585 6.42362 212.585 6.42362C212.585 6.42362 212.528 7.63888 209.137 8.21758C208.792 8.21758 208.504 8.27546 208.159 8.3912C208.734 7.69676 208.964 7.06018 208.964 7.06018C208.447 7.81249 207.182 8.15973 207.182 8.15973C205.688 8.62269 204.883 9.08565 204.365 9.49074C204.193 9.02778 203.906 8.21759 203.848 6.53935C203.848 5.49768 205.458 2.89352 205.458 2.89352C203.618 3.7037 201.204 3.58796 200.342 5.67129C199.882 6.77083 199.307 7.4074 198.79 7.69675C198.56 7.63888 198.272 7.58102 198.042 7.52315C197.582 7.40741 197.123 7.4074 196.72 7.34953C196.605 6.36573 197.123 5.43981 197.123 5.43981C198.215 1.90972 196.318 0 196.318 0C196.318 0 197.123 0.810182 195.743 3.41435C195.743 2.60416 195.571 2.02546 195.571 2.02546C195.571 2.95139 194.766 3.93518 194.766 3.93518C193.846 5.15046 193.444 6.01852 193.329 6.59722C192.926 6.30787 192.179 5.8449 191.144 4.51388C190.512 3.7037 190.225 0.636578 190.225 0.636578C189.247 2.31482 187.178 3.64583 187.753 5.78704C188.098 7.11806 187.925 7.9861 187.638 8.56481C187.121 8.79629 186.603 9.02778 186.143 9.25926C185.511 8.50695 185.396 7.58102 185.396 7.58102C184.246 4.05093 181.545 3.64583 181.545 3.64583C181.545 3.64583 182.694 3.81945 183.097 7.00232C182.579 6.19213 182.005 5.84491 182.005 5.84491C182.579 6.53936 182.522 7.8125 182.522 7.8125C182.522 9.31713 182.694 10.243 182.982 10.8217C182.464 10.8217 181.602 10.8796 179.935 10.3588C178.958 10.0694 176.889 7.75463 176.889 7.75463C177.119 9.66435 176.256 11.9213 177.981 13.3681C178.786 14.0625 179.245 14.6991 179.418 15.2199C178.958 15.8565 178.556 16.5509 178.211 17.2454C177.406 16.956 176.831 16.3773 176.831 16.3773C173.842 14.2361 171.428 15.4514 171.428 15.4514C171.428 15.4514 172.52 14.8727 174.819 17.3611C174.877 17.4769 174.992 17.5347 175.049 17.6505C173.784 16.7824 172.52 16.7824 172.52 16.7824C173.382 17.0139 174.129 18.1134 174.129 18.1134C175.049 19.3287 175.739 19.9653 176.314 20.3125C175.911 20.6019 175.222 21.1227 173.555 21.7014C172.577 22.0486 169.531 21.3542 169.531 21.3542C170.853 22.8009 171.543 25.1157 173.784 25.2315C175.222 25.3472 176.026 25.7523 176.486 26.2153C176.544 26.8518 176.601 27.5463 176.716 28.1829C175.739 28.7037 174.589 28.5301 174.589 28.5301C170.91 28.5301 169.646 30.9607 169.646 30.9607C169.646 30.9607 170.163 29.919 173.095 30.4398C172.347 30.6713 171.888 31.0185 171.888 31.0185C172.75 30.7292 173.957 31.1343 173.957 31.1343C175.452 31.5972 176.371 31.713 177.004 31.6551C176.889 32.118 176.601 32.9282 175.624 34.3171C175.049 35.1852 172.117 36.3426 172.117 36.3426C174.072 36.7477 175.969 38.2523 177.923 37.037C179.015 36.3426 179.878 36.2268 180.51 36.2847C180.97 36.8055 181.487 37.3264 182.005 37.8472C181.487 38.6574 180.625 39.1204 180.625 39.1204C177.693 41.3195 178.096 43.9815 178.096 43.9815C178.096 43.9815 177.923 42.8241 180.682 41.493C180.165 42.1875 179.935 42.7662 179.935 42.7662C180.453 42.0139 181.717 41.6667 181.717 41.6667C183.212 41.2037 184.016 40.7407 184.534 40.3356C184.706 40.7986 184.994 41.6088 185.051 43.287C185.051 44.3287 183.442 46.9329 183.442 46.9329C185.281 46.1227 187.695 46.2384 188.558 44.1551C189.017 42.9977 189.592 42.419 190.11 42.0718C190.397 42.1296 190.684 42.2454 191.029 42.3032C191.662 42.419 192.237 42.5347 192.869 42.5347C192.754 43.6343 191.949 44.5602 191.949 44.5602C189.88 47.6273 191.202 50 191.202 50C191.202 50 190.57 48.9583 193.041 46.5857C193.214 46.4699 193.386 46.2963 193.501 46.1806C193.444 47.0486 193.674 47.6273 193.674 47.6273C193.674 46.7014 194.478 45.7176 194.478 45.7176C195.398 44.5023 195.8 43.6343 195.915 43.0556C196.318 43.3449 197.065 43.8079 198.1 45.1389C198.732 45.9491 199.02 49.0162 199.02 49.0162C199.997 47.338 202.066 46.0069 201.491 43.8657C201.204 42.6505 201.319 41.8403 201.491 41.2616C202.181 40.9722 202.813 40.6829 203.503 40.3356C204.308 41.088 204.48 42.2454 204.48 42.2454C205.63 45.7755 208.332 46.1806 208.332 46.1806C208.332 46.1806 207.182 46.0069 206.78 42.8241C207.24 43.4607 207.699 43.8079 207.699 43.8079C207.125 43.1134 207.182 41.8403 207.182 41.8403C207.182 40.3356 207.01 39.4097 206.722 38.831C207.24 38.831 208.102 38.7731 209.769 39.294C210.746 39.5833 212.815 41.8981 212.815 41.8981C212.585 39.9884 213.448 37.7315 211.723 36.2847C210.689 35.4167 210.286 34.6643 210.171 34.0278C210.516 33.4491 210.861 32.8125 211.148 32.1759C212.068 32.4074 212.758 33.1018 212.758 33.1018C215.747 35.243 218.161 34.0278 218.161 34.0278C218.161 34.0278 217.012 34.5486 214.827 32.2338ZM194.536 40.3935C193.501 40.3935 192.466 40.2778 191.374 40.1042C183.729 38.5995 178.498 32.1181 178.498 24.8843C178.498 23.9005 178.613 22.8588 178.786 21.8171C180.28 14.4676 186.948 9.31713 194.421 9.31713C195.456 9.31713 196.49 9.43287 197.582 9.60649C205.228 11.1111 210.459 17.5926 210.459 24.8264C210.459 25.8102 210.344 26.8518 210.171 27.8935C208.677 35.243 202.009 40.3935 194.536 40.3935Z" fill="#E5B13A"/>
</svg>
